<svg xmlns="http://www.w3.org/2000/svg" xmlns:xlink="http://www.w3.org/1999/xlink" width="85" height="85" viewBox="0 0 85 85">
  <defs>
    <style>
      .cls-1, .cls-8, .cls-9 {
        fill: none;
      }

      .cls-2 {
        fill: url(#linear-gradient);
      }

      .cls-3 {
        stroke: #707070;
        stroke-width: 1.6px;
        fill: url(#radial-gradient);
      }

      .cls-3, .cls-8, .cls-9 {
        stroke-miterlimit: 10;
      }

      .cls-10, .cls-4 {
        fill: #79d0ff;
      }

      .cls-4 {
        opacity: 0.24;
      }

      .cls-5 {
        fill: #233a73;
      }

      .cls-6 {
        clip-path: url(#clip-path);
      }

      .cls-7 {
        fill: #2e79cd;
      }

      .cls-8 {
        stroke: #79d0ff;
        stroke-width: 3.2px;
      }

      .cls-8, .cls-9 {
        stroke-linecap: round;
        stroke-linejoin: round;
      }

      .cls-9 {
        stroke: #233a73;
        stroke-width: 2.8px;
      }

      .cls-11 {
        fill: url(#radial-gradient-2);
      }

      .cls-12 {
        fill: url(#radial-gradient-3);
      }

      .cls-13 {
        filter: url(#line);
      }

      .cls-14 {
        filter: url(#circle);
      }
    </style>
    <linearGradient id="linear-gradient" x1="0.5" x2="0.5" y2="1" gradientUnits="objectBoundingBox">
      <stop offset="0" stop-color="#59a4f8"/>
      <stop offset="1" stop-color="#186dcb"/>
    </linearGradient>
    <filter id="circle" x="0" y="0" width="85" height="85" filterUnits="userSpaceOnUse">
      <feOffset dy="4" input="SourceAlpha"/>
      <feGaussianBlur stdDeviation="4.5" result="blur"/>
      <feFlood flood-opacity="0.4"/>
      <feComposite operator="in" in2="blur"/>
      <feComposite in="SourceGraphic"/>
    </filter>
    <radialGradient id="radial-gradient" cx="29" cy="0" r="39.889" gradientUnits="userSpaceOnUse">
      <stop offset="0" stop-color="#fff" stop-opacity="0.502"/>
      <stop offset="1" stop-color="#fff" stop-opacity="0"/>
    </radialGradient>
    <clipPath id="clip-path">
      <path id="base" class="cls-1" d="M16.736,14A17.009,17.009,0,0,1,5.763,9.985,17.021,17.021,0,0,1,0,0H33.473A17.021,17.021,0,0,1,27.71,9.985,17.009,17.009,0,0,1,16.736,14Z" transform="translate(0.264)"/>
    </clipPath>
    <filter id="line" x="36.42" y="28.954" width="12.2" height="15.146" filterUnits="userSpaceOnUse">
      <feOffset dy="2" input="SourceAlpha"/>
      <feGaussianBlur stdDeviation="1.5" result="blur-2"/>
      <feFlood flood-color="#0002ff" flood-opacity="0.4"/>
      <feComposite operator="in" in2="blur-2"/>
      <feComposite in="SourceGraphic"/>
    </filter>
    <radialGradient id="radial-gradient-2" cx="9.007" cy="13.354" r="4.757" gradientTransform="translate(-3.817 -5.723) scale(1.429 1.429)" gradientUnits="userSpaceOnUse">
      <stop offset="0" stop-color="#fff" stop-opacity="0.302"/>
      <stop offset="1" stop-color="#fff" stop-opacity="0"/>
    </radialGradient>
    <radialGradient id="radial-gradient-3" cx="-9.007" cy="13.354" r="4.757" gradientTransform="matrix(-1.429, 0, 0, 1.429, 12.125, -5.723)" xlink:href="#radial-gradient-2"/>
  </defs>
  <g id="alegria" transform="translate(6.5 9.5)">
    <g id="circle-2" data-name="circle">
      <g class="cls-14" transform="matrix(1, 0, 0, 1, -6.5, -9.5)">
        <circle id="circle-3" data-name="circle" class="cls-2" cx="29" cy="29" r="29" transform="translate(13.5 9.5)"/>
      </g>
      <circle id="circle-4" data-name="circle" class="cls-3" cx="29" cy="29" r="29" transform="translate(7)"/>
    </g>
    <g id="face" transform="translate(0 14)">
      <path id="circle-5" data-name="circle" class="cls-4" d="M41,5.5A5.5,5.5,0,1,1,46.5,11,5.5,5.5,0,0,1,41,5.5ZM0,5.5A5.5,5.5,0,1,1,5.5,11,5.5,5.5,0,0,1,0,5.5Z" transform="translate(10 12)"/>
      <path id="base-2" data-name="base" class="cls-5" d="M6.5,14.483A20.415,20.415,0,0,1,.08,1.392,1,1,0,0,1,1,0H40V0A1,1,0,0,1,40.9,1h.041a20.418,20.418,0,0,1-6.455,13.483A20.426,20.426,0,0,1,20.494,20,20.426,20.426,0,0,1,6.5,14.483Z" transform="translate(15.6 16)"/>
      <g id="mouth" transform="translate(19 19)">
        <path id="base-3" data-name="base" class="cls-1" d="M16.736,14A17.009,17.009,0,0,1,5.763,9.985,17.021,17.021,0,0,1,0,0H33.473A17.021,17.021,0,0,1,27.71,9.985,17.009,17.009,0,0,1,16.736,14Z" transform="translate(0.264)"/>
        <g id="mouth-2" data-name="mouth" class="cls-6">
          <circle id="base-4" data-name="base" class="cls-7" cx="17" cy="17" r="17" transform="translate(0 5)"/>
        </g>
      </g>
      <g class="cls-13" transform="matrix(1, 0, 0, 1, -6.5, -23.5)">
        <path id="line-2" data-name="line" class="cls-8" d="M1,0V2.946" transform="translate(41.52 33.05)"/>
      </g>
      <g id="cejas" transform="translate(17.5)">
        <path id="line-3" data-name="line" class="cls-9" d="M6.761,1.812,0,0" transform="translate(30.181 0.125)"/>
        <path id="line-4" data-name="line" class="cls-9" d="M6.761,0,0,1.812" transform="translate(0.052 0.08)"/>
      </g>
      <g id="base-5" data-name="base">
        <path id="base-6" data-name="base" class="cls-10" d="M12.516,17.422h0a7.191,7.191,0,0,1-11.033,0A6.479,6.479,0,0,1,.956,9.909L7,0l6.044,9.909a6.479,6.479,0,0,1-.527,7.512" transform="translate(48.938 13.84) rotate(-30)"/>
        <path id="base-7" data-name="base" class="cls-11" d="M12.516,17.422h0a7.191,7.191,0,0,1-11.033,0A6.479,6.479,0,0,1,.956,9.909L7,0l6.044,9.909a6.479,6.479,0,0,1-.527,7.512" transform="translate(48.938 13.84) rotate(-30)"/>
      </g>
      <g id="base-8" data-name="base">
        <path id="base-9" data-name="base" class="cls-10" d="M-1.484,17.422A6.479,6.479,0,0,0-.956,9.909L-7,0l-6.044,9.909a6.479,6.479,0,0,0,.527,7.512A7.191,7.191,0,0,0-1.484,17.422Z" transform="translate(23.062 13.84) rotate(30)"/>
        <path id="base-10" data-name="base" class="cls-12" d="M-1.484,17.422A6.479,6.479,0,0,0-.956,9.909L-7,0l-6.044,9.909a6.479,6.479,0,0,0,.527,7.512A7.191,7.191,0,0,0-1.484,17.422Z" transform="translate(23.062 13.84) rotate(30)"/>
      </g>
      <g id="eyes" transform="translate(16.5 8)">
        <path id="line-5" data-name="line" class="cls-9" d="M9.588,1.25H.088" transform="translate(28.412 0.75)"/>
        <path id="line-6" data-name="line" class="cls-9" d="M10.088,1.25H.588" transform="translate(0.412 0.75)"/>
      </g>
    </g>
  </g>
</svg>
