<svg xmlns="http://www.w3.org/2000/svg" xmlns:xlink="http://www.w3.org/1999/xlink" width="85" height="85" viewBox="0 0 85 85">
  <defs>
    <style>
      .cls-1, .cls-10, .cls-11, .cls-12, .cls-8, .cls-9 {
        fill: none;
      }

      .cls-2 {
        fill: url(#linear-gradient);
      }

      .cls-3 {
        stroke: #707070;
        stroke-width: 1.6px;
        fill: url(#radial-gradient);
      }

      .cls-10, .cls-11, .cls-12, .cls-3, .cls-8, .cls-9 {
        stroke-miterlimit: 10;
      }

      .cls-4, .cls-5 {
        fill: #79d0ff;
      }

      .cls-4 {
        opacity: 0.5;
      }

      .cls-6 {
        fill: url(#radial-gradient-2);
      }

      .cls-7 {
        clip-path: url(#clip-path);
      }

      .cls-8 {
        stroke: #1d71ce;
        stroke-width: 2px;
      }

      .cls-10, .cls-11, .cls-12, .cls-8, .cls-9 {
        stroke-linecap: round;
        stroke-linejoin: round;
      }

      .cls-11, .cls-12, .cls-9 {
        stroke: #233a73;
      }

      .cls-9 {
        stroke-width: 4px;
      }

      .cls-10 {
        stroke: #79d0ff;
        stroke-width: 3.2px;
      }

      .cls-11 {
        stroke-width: 3px;
      }

      .cls-12 {
        stroke-width: 2.8px;
      }

      .cls-13 {
        filter: url(#line);
      }

      .cls-14 {
        filter: url(#circle);
      }
    </style>
    <linearGradient id="linear-gradient" x1="0.5" x2="0.5" y2="1" gradientUnits="objectBoundingBox">
      <stop offset="0" stop-color="#59a4f8"/>
      <stop offset="1" stop-color="#186dcb"/>
    </linearGradient>
    <filter id="circle" x="0" y="0" width="85" height="85" filterUnits="userSpaceOnUse">
      <feOffset dy="4" input="SourceAlpha"/>
      <feGaussianBlur stdDeviation="4.5" result="blur"/>
      <feFlood flood-opacity="0.4"/>
      <feComposite operator="in" in2="blur"/>
      <feComposite in="SourceGraphic"/>
    </filter>
    <radialGradient id="radial-gradient" cx="29" cy="0" r="39.889" gradientUnits="userSpaceOnUse">
      <stop offset="0" stop-color="#fff" stop-opacity="0.502"/>
      <stop offset="1" stop-color="#fff" stop-opacity="0"/>
    </radialGradient>
    <radialGradient id="radial-gradient-2" cx="4.223" cy="13.48" r="5.499" gradientTransform="translate(-0.952 -3.039) scale(1.225 1.225)" gradientUnits="userSpaceOnUse">
      <stop offset="0" stop-color="#fff" stop-opacity="0.302"/>
      <stop offset="1" stop-color="#fff" stop-opacity="0"/>
    </radialGradient>
    <clipPath id="clip-path">
      <path class="cls-1" d="M0,8.5V.52a21.991,21.991,0,0,0,6.707,1.04A22.145,22.145,0,0,0,11,1.142V8.5a5.5,5.5,0,0,1-11,0Z"/>
    </clipPath>
    <filter id="line" x="36.42" y="28.954" width="12.2" height="17.736" filterUnits="userSpaceOnUse">
      <feOffset dy="2" input="SourceAlpha"/>
      <feGaussianBlur stdDeviation="1.5" result="blur-2"/>
      <feFlood flood-color="#0002ff" flood-opacity="0.4"/>
      <feComposite operator="in" in2="blur-2"/>
      <feComposite in="SourceGraphic"/>
    </filter>
  </defs>
  <g id="lengua-afuera" transform="translate(13.5 9.5)">
    <g id="circle-2" data-name="circle">
      <g class="cls-14" transform="matrix(1, 0, 0, 1, -13.5, -9.5)">
        <circle id="circle-3" data-name="circle" class="cls-2" cx="29" cy="29" r="29" transform="translate(13.5 9.5)"/>
      </g>
      <circle id="circle-4" data-name="circle" class="cls-3" cx="29" cy="29" r="29"/>
    </g>
    <g id="face" transform="translate(3 14)">
      <path id="circle-5" data-name="circle" class="cls-4" d="M41,5.5A5.5,5.5,0,1,1,46.5,11,5.5,5.5,0,0,1,41,5.5ZM0,5.5A5.5,5.5,0,1,1,5.5,11,5.5,5.5,0,0,1,0,5.5Z" transform="translate(0 10)"/>
      <g id="lengua" transform="translate(35.472 32.299) rotate(-45)">
        <g id="base">
          <path id="base-2" data-name="base" class="cls-5" d="M5.5,13.48A5.506,5.506,0,0,1,0,7.98V0A21.987,21.987,0,0,0,6.707,1.041,22.175,22.175,0,0,0,11,.623V7.98A5.506,5.506,0,0,1,5.5,13.48Z" transform="translate(0 0.52)"/>
          <path id="base-3" data-name="base" class="cls-6" d="M5.5,13.48A5.506,5.506,0,0,1,0,7.98V0A21.987,21.987,0,0,0,6.707,1.041,22.175,22.175,0,0,0,11,.623V7.98A5.506,5.506,0,0,1,5.5,13.48Z" transform="translate(0 0.52)"/>
        </g>
        <g id="lengua-2" data-name="lengua" class="cls-7">
          <path id="line-2" data-name="line" class="cls-8" d="M1.5.5v12" transform="translate(4 -3)"/>
        </g>
      </g>
      <path id="line-3" data-name="line" class="cls-9" d="M0,0A21.007,21.007,0,0,0,19.524,13,21.01,21.01,0,0,0,39,.118" transform="translate(6.5 22)"/>
      <g class="cls-13" transform="matrix(1, 0, 0, 1, -16.5, -23.5)">
        <path id="line-4" data-name="line" class="cls-10" d="M1,0V5.536" transform="translate(41.52 33.05)"/>
      </g>
      <path id="line-5" data-name="line" class="cls-11" d="M0,0A4.492,4.492,0,0,0,4.5,4,4.492,4.492,0,0,0,9,.009" transform="translate(9 8)"/>
      <path id="line-6" data-name="line" class="cls-11" d="M0,0A4.492,4.492,0,0,0,4.5,4,4.492,4.492,0,0,0,9,.009" transform="translate(34 8)"/>
      <g id="cejas" transform="translate(6.5)">
        <path id="line-7" data-name="line" class="cls-12" d="M6.761,1.812,0,0" transform="translate(32.181 0.125)"/>
        <path id="line-8" data-name="line" class="cls-12" d="M6.761,0,0,1.812" transform="translate(0.052 0.08)"/>
      </g>
    </g>
  </g>
</svg>
