<svg xmlns="http://www.w3.org/2000/svg" xmlns:xlink="http://www.w3.org/1999/xlink" width="85" height="85" viewBox="0 0 85 85">
  <defs>
    <style>
      .cls-1 {
        fill: url(#linear-gradient);
      }

      .cls-2 {
        stroke: #707070;
        stroke-width: 1.6px;
        fill: url(#radial-gradient);
      }

      .cls-2, .cls-4, .cls-5, .cls-6 {
        stroke-miterlimit: 10;
      }

      .cls-3 {
        fill: #79d0ff;
        opacity: 0.24;
      }

      .cls-4, .cls-5, .cls-6 {
        fill: none;
        stroke-linecap: round;
        stroke-linejoin: round;
      }

      .cls-4, .cls-6 {
        stroke: #233a73;
      }

      .cls-4 {
        stroke-width: 4px;
      }

      .cls-5 {
        stroke: #79d0ff;
        stroke-width: 3.2px;
      }

      .cls-6 {
        stroke-width: 2.8px;
      }

      .cls-7 {
        fill: #233a73;
      }

      .cls-8 {
        filter: url(#line);
      }

      .cls-9 {
        filter: url(#circle);
      }
    </style>
    <linearGradient id="linear-gradient" x1="0.5" x2="0.5" y2="1" gradientUnits="objectBoundingBox">
      <stop offset="0" stop-color="#59a4f8"/>
      <stop offset="1" stop-color="#186dcb"/>
    </linearGradient>
    <filter id="circle" x="0" y="0" width="85" height="85" filterUnits="userSpaceOnUse">
      <feOffset dy="4" input="SourceAlpha"/>
      <feGaussianBlur stdDeviation="4.5" result="blur"/>
      <feFlood flood-opacity="0.4"/>
      <feComposite operator="in" in2="blur"/>
      <feComposite in="SourceGraphic"/>
    </filter>
    <radialGradient id="radial-gradient" cx="29" cy="0" r="39.889" gradientUnits="userSpaceOnUse">
      <stop offset="0" stop-color="#fff" stop-opacity="0.502"/>
      <stop offset="1" stop-color="#fff" stop-opacity="0"/>
    </radialGradient>
    <filter id="line" x="36.42" y="28.954" width="12.2" height="17.736" filterUnits="userSpaceOnUse">
      <feOffset dy="2" input="SourceAlpha"/>
      <feGaussianBlur stdDeviation="1.5" result="blur-2"/>
      <feFlood flood-color="#0002ff" flood-opacity="0.4"/>
      <feComposite operator="in" in2="blur-2"/>
      <feComposite in="SourceGraphic"/>
    </filter>
  </defs>
  <g id="neutro" transform="translate(13.5 9.5)">
    <g id="circle-2" data-name="circle">
      <g class="cls-9" transform="matrix(1, 0, 0, 1, -13.5, -9.5)">
        <circle id="circle-3" data-name="circle" class="cls-1" cx="29" cy="29" r="29" transform="translate(13.5 9.5)"/>
      </g>
      <circle id="circle-4" data-name="circle" class="cls-2" cx="29" cy="29" r="29"/>
    </g>
    <g id="face" transform="translate(3 13)">
      <path id="circle-5" data-name="circle" class="cls-3" d="M41,5.5A5.5,5.5,0,1,1,46.5,11,5.5,5.5,0,0,1,41,5.5ZM0,5.5A5.5,5.5,0,1,1,5.5,11,5.5,5.5,0,0,1,0,5.5Z" transform="translate(0 13)"/>
      <path id="line-2" data-name="line" class="cls-4" d="M.453,1.023h35" transform="translate(8 29)"/>
      <g class="cls-8" transform="matrix(1, 0, 0, 1, -16.5, -22.5)">
        <path id="line-3" data-name="line" class="cls-5" d="M1,0V5.536" transform="translate(41.52 33.05)"/>
      </g>
      <g id="cejas" transform="translate(7.5)">
        <path id="line-4" data-name="line" class="cls-6" d="M7.588,1.25h-7" transform="translate(28.412 0.75)"/>
        <path id="line-5" data-name="line" class="cls-6" d="M7.588,1.25h-7" transform="translate(0.412 0.75)"/>
      </g>
      <path id="eyes" class="cls-7" d="M27.219,7.086a3.5,3.5,0,0,1-3.451-3.543,3.451,3.451,0,1,1,6.9,0A3.5,3.5,0,0,1,27.219,7.086Zm-23.768,0A3.5,3.5,0,0,1,0,3.542,3.5,3.5,0,0,1,3.451,0,3.5,3.5,0,0,1,6.9,3.542,3.5,3.5,0,0,1,3.451,7.086Z" transform="translate(10.7 5)"/>
    </g>
  </g>
</svg>
