<?xml version="1.0" encoding="utf-8"?>
<!-- Generator: Adobe Illustrator 23.0.0, SVG Export Plug-In . SVG Version: 6.00 Build 0)  -->
<svg version="1.1" id="Layer_1" xmlns="http://www.w3.org/2000/svg" xmlns:xlink="http://www.w3.org/1999/xlink" x="0px" y="0px"
	 viewBox="0 0 650 100" style="enable-background:new 0 0 650 100;" xml:space="preserve">
<style type="text/css">
	.st0{opacity:0.6;fill:#BEE9F9;stroke:#BEE9F9;stroke-width:1.51;}
	.st1{opacity:0.6;fill:#CBEDF9;stroke:#CBEDF9;stroke-width:1.51;}
	.st2{opacity:0.6;fill:#C8EBF6;stroke:#C8EBF6;stroke-width:1.51;}
	.st3{opacity:0.6;fill:#CBEEF8;stroke:#CBEEF8;stroke-width:1.51;}
	.st4{opacity:0.6;fill:#B0E6FB;stroke:#B0E6FB;stroke-width:1.51;}
	.st5{opacity:0.6;fill:#CAECF8;stroke:#CAECF8;stroke-width:1.51;}
	.st6{opacity:0.6;fill:#BCE9F9;stroke:#BCE9F9;stroke-width:1.51;}
	.st7{opacity:0.6;fill:#AFE5F8;stroke:#AFE5F8;stroke-width:1.51;}
	.st8{opacity:0.6;fill:#CDEFFA;stroke:#CDEFFA;stroke-width:1.51;}
	.st9{opacity:0.6;fill:#B3E5F6;stroke:#B3E5F6;stroke-width:1.51;}
	.st10{opacity:0.6;fill:#C7EAF6;stroke:#C7EAF6;stroke-width:1.51;}
	.st11{opacity:0.6;fill:#CEEFF9;stroke:#CEEFF9;stroke-width:1.51;}
	.st12{opacity:0.6;fill:#CDF0FA;stroke:#CDF0FA;stroke-width:1.51;}
	.st13{opacity:0.6;fill:#CCEFFB;stroke:#CCEFFB;stroke-width:1.51;}
	.st14{opacity:0.6;fill:#D0EFFA;stroke:#D0EFFA;stroke-width:1.51;}
	.st15{opacity:0.6;fill:#BCE7F6;stroke:#BCE7F6;stroke-width:1.51;}
	.st16{opacity:0.6;fill:#B3E4F4;stroke:#B3E4F4;stroke-width:1.51;}
	.st17{opacity:0.6;fill:#CEF0FB;stroke:#CEF0FB;stroke-width:1.51;}
	.st18{opacity:0.6;fill:#CEEEF7;stroke:#CEEEF7;stroke-width:1.51;}
	.st19{opacity:0.6;fill:#D0EEF8;stroke:#D0EEF8;stroke-width:1.51;}
	.st20{opacity:0.6;fill:#C2E4EE;stroke:#C2E4EE;stroke-width:1.51;}
	.st21{opacity:0.6;fill:#CCF0FB;stroke:#CCF0FB;stroke-width:1.51;}
	.st22{opacity:0.6;fill:#D4F2FA;stroke:#D4F2FA;stroke-width:1.51;}
	.st23{opacity:0.6;fill:#D4F0F9;stroke:#D4F0F9;stroke-width:1.51;}
	.st24{opacity:0.6;fill:#CDECF6;stroke:#CDECF6;stroke-width:1.51;}
	.st25{opacity:0.6;fill:#B2E4F6;stroke:#B2E4F6;stroke-width:1.51;}
	.st26{opacity:0.6;fill:#C8EAF4;stroke:#C8EAF4;stroke-width:1.51;}
	.st27{opacity:0.6;fill:#B6E4F2;stroke:#B6E4F2;stroke-width:1.51;}
	.st28{opacity:0.6;fill:#BDE4ED;stroke:#BDE4ED;stroke-width:1.51;}
	.st29{opacity:0.6;fill:#C0E3EA;stroke:#C0E3EA;stroke-width:1.51;}
	.st30{opacity:0.6;fill:#BEE4EE;stroke:#BEE4EE;stroke-width:1.51;}
	.st31{opacity:0.6;fill:#B8E6F6;stroke:#B8E6F6;stroke-width:1.51;}
	.st32{opacity:0.6;fill:#BDE8F9;stroke:#BDE8F9;stroke-width:1.51;}
	.st33{opacity:0.6;fill:#C0E3EE;stroke:#C0E3EE;stroke-width:1.51;}
	.st34{opacity:0.6;fill:#C2E3EE;stroke:#C2E3EE;stroke-width:1.51;}
	.st35{opacity:0.6;fill:#BDE9F9;stroke:#BDE9F9;stroke-width:1.51;}
	.st36{opacity:0.6;fill:#D7F2FA;stroke:#D7F2FA;stroke-width:1.51;}
	.st37{opacity:0.6;fill:#BFE6F0;stroke:#BFE6F0;stroke-width:1.51;}
	.st38{opacity:0.6;fill:#C6E3EE;stroke:#C6E3EE;stroke-width:1.51;}
	.st39{opacity:0.6;fill:#C5E6EE;stroke:#C5E6EE;stroke-width:1.51;}
	.st40{opacity:0.6;fill:#D0EFF8;stroke:#D0EFF8;stroke-width:1.51;}
	.st41{opacity:0.6;fill:#D0EDF4;stroke:#D0EDF4;stroke-width:1.51;}
	.st42{opacity:0.6;fill:#D1EFF6;stroke:#D1EFF6;stroke-width:1.51;}
	.st43{opacity:0.6;fill:#B4E4F4;stroke:#B4E4F4;stroke-width:1.51;}
	.st44{opacity:0.6;fill:#BBE3EE;stroke:#BBE3EE;stroke-width:1.51;}
	.st45{opacity:0.6;fill:#C1E3EA;stroke:#C1E3EA;stroke-width:1.51;}
	.st46{opacity:0.6;fill:#CEEBF3;stroke:#CEEBF3;stroke-width:1.51;}
	.st47{opacity:0.6;fill:#C1E8F3;stroke:#C1E8F3;stroke-width:1.51;}
	.st48{opacity:0.6;fill:#D3F1FB;stroke:#D3F1FB;stroke-width:1.51;}
	.st49{opacity:0.6;fill:#D0F1FB;stroke:#D0F1FB;stroke-width:1.51;}
	.st50{opacity:0.6;fill:#CFEDF7;stroke:#CFEDF7;stroke-width:1.51;}
	.st51{opacity:0.6;fill:#CDECF8;stroke:#CDECF8;stroke-width:1.51;}
	.st52{opacity:0.6;fill:#D9F3FA;stroke:#D9F3FA;stroke-width:1.51;}
	.st53{opacity:0.6;fill:#C7E3EE;stroke:#C7E3EE;stroke-width:1.51;}
	.st54{opacity:0.6;fill:#C5E2EE;stroke:#C5E2EE;stroke-width:1.51;}
	.st55{opacity:0.6;fill:#C3E2EB;stroke:#C3E2EB;stroke-width:1.51;}
	.st56{opacity:0.6;fill:#C8E2EB;stroke:#C8E2EB;stroke-width:1.51;}
	.st57{opacity:0.6;fill:#D3EFF4;stroke:#D3EFF4;stroke-width:1.51;}
	.st58{opacity:0.6;fill:#D2EFF6;stroke:#D2EFF6;stroke-width:1.51;}
	.st59{opacity:0.6;fill:#CAE5ED;stroke:#CAE5ED;stroke-width:1.51;}
	.st60{opacity:0.6;fill:#CDE5ED;stroke:#CDE5ED;stroke-width:1.51;}
	.st61{opacity:0.6;fill:#C1E7F2;stroke:#C1E7F2;stroke-width:1.51;}
	.st62{opacity:0.6;fill:#C3E7F2;stroke:#C3E7F2;stroke-width:1.51;}
	.st63{opacity:0.6;fill:#D6F2FA;stroke:#D6F2FA;stroke-width:1.51;}
	.st64{opacity:0.6;fill:#CAE4EE;stroke:#CAE4EE;stroke-width:1.51;}
	.st65{opacity:0.6;fill:#C6E2ED;stroke:#C6E2ED;stroke-width:1.51;}
	.st66{opacity:0.6;fill:#D8F0F7;stroke:#D8F0F7;stroke-width:1.51;}
	.st67{opacity:0.6;fill:#DBF3FA;stroke:#DBF3FA;stroke-width:1.51;}
	.st68{opacity:0.6;fill:#D2EDF3;stroke:#D2EDF3;stroke-width:1.51;}
	.st69{opacity:0.6;fill:#B7E4F1;stroke:#B7E4F1;stroke-width:1.51;}
	.st70{opacity:0.6;fill:#BCE3ED;stroke:#BCE3ED;stroke-width:1.51;}
	.st71{opacity:0.6;fill:#C4E2E8;stroke:#C4E2E8;stroke-width:1.51;}
	.st72{opacity:0.6;fill:#C8E2E9;stroke:#C8E2E9;stroke-width:1.51;}
	.st73{opacity:0.6;fill:#C4E2EE;stroke:#C4E2EE;stroke-width:1.51;}
	.st74{opacity:0.6;fill:#CCE4ED;stroke:#CCE4ED;stroke-width:1.51;}
	.st75{opacity:0.6;fill:#CAE6ED;stroke:#CAE6ED;stroke-width:1.51;}
	.st76{opacity:0.6;fill:#CCE6EC;stroke:#CCE6EC;stroke-width:1.51;}
	.st77{opacity:0.6;fill:#CAE8F1;stroke:#CAE8F1;stroke-width:1.51;}
	.st78{opacity:0.6;fill:#C3E6EF;stroke:#C3E6EF;stroke-width:1.51;}
	.st79{opacity:0.6;fill:#DAF1F7;stroke:#DAF1F7;stroke-width:1.51;}
	.st80{opacity:0.6;fill:#D0E6EC;stroke:#D0E6EC;stroke-width:1.51;}
	.st81{opacity:0.6;fill:#D1EBF1;stroke:#D1EBF1;stroke-width:1.51;}
	.st82{opacity:0.6;fill:#CFE5ED;stroke:#CFE5ED;stroke-width:1.51;}
	.st83{opacity:0.6;fill:#BDE5F1;stroke:#BDE5F1;stroke-width:1.51;}
	.st84{opacity:0.6;fill:#CAE2E9;stroke:#CAE2E9;stroke-width:1.51;}
	.st85{opacity:0.6;fill:#D1E5ED;stroke:#D1E5ED;stroke-width:1.51;}
	.st86{opacity:0.6;fill:#C8E7EE;stroke:#C8E7EE;stroke-width:1.51;}
	.st87{opacity:0.6;fill:#C9E8F1;stroke:#C9E8F1;stroke-width:1.51;}
	.st88{opacity:0.6;fill:#C9E2EA;stroke:#C9E2EA;stroke-width:1.51;}
	.st89{opacity:0.6;fill:#CCE8EF;stroke:#CCE8EF;stroke-width:1.51;}
	.st90{opacity:0.6;fill:#DBF0F7;stroke:#DBF0F7;stroke-width:1.51;}
	.st91{opacity:0.6;fill:#DFF4F9;stroke:#DFF4F9;stroke-width:1.51;}
	.st92{opacity:0.6;fill:#C8E3EE;stroke:#C8E3EE;stroke-width:1.51;}
	.st93{opacity:0.6;fill:#CEE4ED;stroke:#CEE4ED;stroke-width:1.51;}
	.st94{opacity:0.6;fill:#DCF3F9;stroke:#DCF3F9;stroke-width:1.51;}
	.st95{opacity:0.6;fill:#E3F5F9;stroke:#E3F5F9;stroke-width:1.51;}
	.st96{opacity:0.6;fill:#D2EFF5;stroke:#D2EFF5;stroke-width:1.51;}
	.st97{opacity:0.6;fill:#D4EFF3;stroke:#D4EFF3;stroke-width:1.51;}
	.st98{opacity:0.6;fill:#D5EFF2;stroke:#D5EFF2;stroke-width:1.51;}
	.st99{opacity:0.6;fill:#DEF4F9;stroke:#DEF4F9;stroke-width:1.51;}
	.st100{opacity:0.6;fill:#D1EAEF;stroke:#D1EAEF;stroke-width:1.51;}
	.st101{opacity:0.6;fill:#BEE3EB;stroke:#BEE3EB;stroke-width:1.51;}
	.st102{opacity:0.6;fill:#C6E2E6;stroke:#C6E2E6;stroke-width:1.51;}
	.st103{opacity:0.6;fill:#E0F4F9;stroke:#E0F4F9;stroke-width:1.51;}
	.st104{opacity:0.6;fill:#D3E6EC;stroke:#D3E6EC;stroke-width:1.51;}
	.st105{opacity:0.6;fill:#D2E6ED;stroke:#D2E6ED;stroke-width:1.51;}
	.st106{opacity:0.6;fill:#C1EAF8;stroke:#C1EAF8;stroke-width:1.51;}
	.st107{opacity:0.6;fill:#D3EBEF;stroke:#D3EBEF;stroke-width:1.51;}
	.st108{opacity:0.6;fill:#CCE1E6;stroke:#CCE1E6;stroke-width:1.51;}
	.st109{opacity:0.6;fill:#D2E7EC;stroke:#D2E7EC;stroke-width:1.51;}
	.st110{opacity:0.6;fill:#DAE7EC;stroke:#DAE7EC;stroke-width:1.51;}
	.st111{opacity:0.6;fill:#CAEBF8;stroke:#CAEBF8;stroke-width:1.51;}
	.st112{opacity:0.6;fill:#E1F5F9;stroke:#E1F5F9;stroke-width:1.51;}
	.st113{opacity:0.6;fill:#D3EAED;stroke:#D3EAED;stroke-width:1.51;}
	.st114{opacity:0.6;fill:#BCE3EC;stroke:#BCE3EC;stroke-width:1.51;}
	.st115{opacity:0.6;fill:#CCE1E7;stroke:#CCE1E7;stroke-width:1.51;}
	.st116{opacity:0.6;fill:#CBE1E7;stroke:#CBE1E7;stroke-width:1.51;}
	.st117{opacity:0.6;fill:#D5E6EC;stroke:#D5E6EC;stroke-width:1.51;}
	.st118{opacity:0.6;fill:#C4E6EF;stroke:#C4E6EF;stroke-width:1.51;}
	.st119{opacity:0.6;fill:#D4EFF2;stroke:#D4EFF2;stroke-width:1.51;}
	.st120{opacity:0.6;fill:#D6EFF1;stroke:#D6EFF1;stroke-width:1.51;}
	.st121{opacity:0.6;fill:#D7EEEF;stroke:#D7EEEF;stroke-width:1.51;}
	.st122{opacity:0.6;fill:#CDE1E5;stroke:#CDE1E5;stroke-width:1.51;}
	.st123{opacity:0.6;fill:#BBE3ED;stroke:#BBE3ED;stroke-width:1.51;}
	.st124{opacity:0.6;fill:#C2E5EE;stroke:#C2E5EE;stroke-width:1.51;}
	.st125{opacity:0.6;fill:#CEE1E5;stroke:#CEE1E5;stroke-width:1.51;}
	.st126{opacity:0.6;fill:#CBE9F2;stroke:#CBE9F2;stroke-width:1.51;}
	.st127{opacity:0.6;fill:#D9E7EC;stroke:#D9E7EC;stroke-width:1.51;}
	.st128{opacity:0.6;fill:#D7E6EC;stroke:#D7E6EC;stroke-width:1.51;}
	.st129{opacity:0.6;fill:#D8EFF6;stroke:#D8EFF6;stroke-width:1.51;}
	.st130{opacity:0.6;fill:#D7EEF0;stroke:#D7EEF0;stroke-width:1.51;}
	.st131{opacity:0.6;fill:#C1E2E8;stroke:#C1E2E8;stroke-width:1.51;}
	.st132{opacity:0.6;fill:#CBE2E8;stroke:#CBE2E8;stroke-width:1.51;}
	.st133{opacity:0.6;fill:#E2F3F7;stroke:#E2F3F7;stroke-width:1.51;}
	.st134{opacity:0.6;fill:#E2F5F9;stroke:#E2F5F9;stroke-width:1.51;}
	.st135{opacity:0.6;fill:#CAE2E2;stroke:#CAE2E2;stroke-width:1.51;}
	.st136{opacity:0.6;fill:#C8E2E4;stroke:#C8E2E4;stroke-width:1.51;}
	.st137{opacity:0.6;fill:#E5F4F7;stroke:#E5F4F7;stroke-width:1.51;}
	.st138{opacity:0.6;fill:#D6EEF0;stroke:#D6EEF0;stroke-width:1.51;}
	.st139{opacity:0.6;fill:#D5ECEE;stroke:#D5ECEE;stroke-width:1.51;}
	.st140{opacity:0.6;fill:#D7EDED;stroke:#D7EDED;stroke-width:1.51;}
	.st141{opacity:0.6;fill:#D6EBEC;stroke:#D6EBEC;stroke-width:1.51;}
	.st142{opacity:0.6;fill:#D1EDF7;stroke:#D1EDF7;stroke-width:1.51;}
	.st143{opacity:0.6;fill:#D1EAEE;stroke:#D1EAEE;stroke-width:1.51;}
	.st144{opacity:0.6;fill:#D8EEEE;stroke:#D8EEEE;stroke-width:1.51;}
	.st145{opacity:0.6;fill:#CFE8EC;stroke:#CFE8EC;stroke-width:1.51;}
	.st146{opacity:0.6;fill:#CBEBF5;stroke:#CBEBF5;stroke-width:1.51;}
	.st147{opacity:0.6;fill:#CAECF9;stroke:#CAECF9;stroke-width:1.51;}
	.st148{opacity:0.6;fill:#DBF0F6;stroke:#DBF0F6;stroke-width:1.51;}
	.st149{opacity:0.6;fill:#E4F3F6;stroke:#E4F3F6;stroke-width:1.51;}
	.st150{opacity:0.6;fill:#C5E6ED;stroke:#C5E6ED;stroke-width:1.51;}
	.st151{opacity:0.6;fill:#D8E6EC;stroke:#D8E6EC;stroke-width:1.51;}
	.st152{opacity:0.6;fill:#DCE7EC;stroke:#DCE7EC;stroke-width:1.51;}
	.st153{opacity:0.6;fill:#D8E8EB;stroke:#D8E8EB;stroke-width:1.51;}
	.st154{opacity:0.6;fill:#CFE1E2;stroke:#CFE1E2;stroke-width:1.51;}
	.st155{opacity:0.6;fill:#E5F6F8;stroke:#E5F6F8;stroke-width:1.51;}
	.st156{opacity:0.6;fill:#D9EEEE;stroke:#D9EEEE;stroke-width:1.51;}
	.st157{opacity:0.6;fill:#DFE8EC;stroke:#DFE8EC;stroke-width:1.51;}
	.st158{opacity:0.6;fill:#CFE1E3;stroke:#CFE1E3;stroke-width:1.51;}
	.st159{opacity:0.6;fill:#D0E1E3;stroke:#D0E1E3;stroke-width:1.51;}
	.st160{opacity:0.6;fill:#C4E3E5;stroke:#C4E3E5;stroke-width:1.51;}
	.st161{opacity:0.6;fill:#D8EDEE;stroke:#D8EDEE;stroke-width:1.51;}
	.st162{opacity:0.6;fill:#C8E2E3;stroke:#C8E2E3;stroke-width:1.51;}
	.st163{opacity:0.6;fill:#D1E1E2;stroke:#D1E1E2;stroke-width:1.51;}
	.st164{opacity:0.6;fill:#CFE1E4;stroke:#CFE1E4;stroke-width:1.51;}
	.st165{opacity:0.6;fill:#CDE1E6;stroke:#CDE1E6;stroke-width:1.51;}
	.st166{opacity:0.6;fill:#DCE9EB;stroke:#DCE9EB;stroke-width:1.51;}
	.st167{opacity:0.6;fill:#DEE8EB;stroke:#DEE8EB;stroke-width:1.51;}
	.st168{opacity:0.6;fill:#D6EAEC;stroke:#D6EAEC;stroke-width:1.51;}
	.st169{opacity:0.6;fill:#E6F6F8;stroke:#E6F6F8;stroke-width:1.51;}
	.st170{opacity:0.6;fill:#E3F2F5;stroke:#E3F2F5;stroke-width:1.51;}
	.st171{opacity:0.6;fill:#D7F0F7;stroke:#D7F0F7;stroke-width:1.51;}
	.st172{opacity:0.6;fill:#D8EBED;stroke:#D8EBED;stroke-width:1.51;}
	.st173{opacity:0.6;fill:#E6F7F8;stroke:#E6F7F8;stroke-width:1.51;}
	.st174{opacity:0.6;fill:#D2E1E2;stroke:#D2E1E2;stroke-width:1.51;}
	.st175{opacity:0.6;fill:#C4E5ED;stroke:#C4E5ED;stroke-width:1.51;}
	.st176{opacity:0.6;fill:#DAEEEE;stroke:#DAEEEE;stroke-width:1.51;}
	.st177{opacity:0.6;fill:#DBEEEE;stroke:#DBEEEE;stroke-width:1.51;}
	.st178{opacity:0.6;fill:#C4E2E7;stroke:#C4E2E7;stroke-width:1.51;}
	.st179{opacity:0.6;fill:#CEE1E2;stroke:#CEE1E2;stroke-width:1.51;}
	.st180{opacity:0.6;fill:#DFE9EC;stroke:#DFE9EC;stroke-width:1.51;}
	.st181{opacity:0.6;fill:#D1EBF0;stroke:#D1EBF0;stroke-width:1.51;}
	.st182{opacity:0.6;fill:#D0EFF9;stroke:#D0EFF9;stroke-width:1.51;}
	.st183{opacity:0.6;fill:#D4E8EC;stroke:#D4E8EC;stroke-width:1.51;}
	.st184{opacity:0.6;fill:#D0E7EC;stroke:#D0E7EC;stroke-width:1.51;}
	.st185{opacity:0.6;fill:#D3E0E2;stroke:#D3E0E2;stroke-width:1.51;}
	.st186{opacity:0.6;fill:#E7F7F9;stroke:#E7F7F9;stroke-width:1.51;}
	.st187{opacity:0.6;fill:#DCEAEC;stroke:#DCEAEC;stroke-width:1.51;}
	.st188{opacity:0.6;fill:#C7E5ED;stroke:#C7E5ED;stroke-width:1.51;}
	.st189{opacity:0.6;fill:#D9EBED;stroke:#D9EBED;stroke-width:1.51;}
	.st190{opacity:0.6;fill:#DCEEEE;stroke:#DCEEEE;stroke-width:1.51;}
	.st191{opacity:0.6;fill:#D7EBEC;stroke:#D7EBEC;stroke-width:1.51;}
	.st192{opacity:0.6;fill:#E7F8F9;stroke:#E7F8F9;stroke-width:1.51;}
	.st193{opacity:0.6;fill:#E0EAEC;stroke:#E0EAEC;stroke-width:1.51;}
	.st194{opacity:0.6;fill:#C2E3EA;stroke:#C2E3EA;stroke-width:1.51;}
	.st195{opacity:0.6;fill:#D1ECF1;stroke:#D1ECF1;stroke-width:1.51;}
	.st196{opacity:0.6;fill:#D8F0F8;stroke:#D8F0F8;stroke-width:1.51;}
	.st197{opacity:0.6;fill:#E3F3F6;stroke:#E3F3F6;stroke-width:1.51;}
	.st198{opacity:0.6;fill:#D4E0E2;stroke:#D4E0E2;stroke-width:1.51;}
	.st199{opacity:0.6;fill:#CBEDF8;stroke:#CBEDF8;stroke-width:1.51;}
	.st200{opacity:0.6;fill:#D2EDF2;stroke:#D2EDF2;stroke-width:1.51;}
	.st201{opacity:0.6;fill:#E4F4F7;stroke:#E4F4F7;stroke-width:1.51;}
	.st202{opacity:0.6;fill:#CDEDF7;stroke:#CDEDF7;stroke-width:1.51;}
	.st203{opacity:0.6;fill:#D4E1E2;stroke:#D4E1E2;stroke-width:1.51;}
	.st204{opacity:0.6;fill:#DDEEEE;stroke:#DDEEEE;stroke-width:1.51;}
	.st205{opacity:0.6;fill:#D1E7EC;stroke:#D1E7EC;stroke-width:1.51;}
	.st206{opacity:0.6;fill:#D5E0E2;stroke:#D5E0E2;stroke-width:1.51;}
	.st207{opacity:0.6;fill:#DAE8EB;stroke:#DAE8EB;stroke-width:1.51;}
	.st208{opacity:0.6;fill:#CFEEF9;stroke:#CFEEF9;stroke-width:1.51;}
	.st209{opacity:0.6;fill:#E8F8F9;stroke:#E8F8F9;stroke-width:1.51;}
	.st210{opacity:0.6;fill:#D5F0F8;stroke:#D5F0F8;stroke-width:1.51;}
	.st211{opacity:0.6;fill:#D6ECED;stroke:#D6ECED;stroke-width:1.51;}
	.st212{opacity:0.6;fill:#CFEFFA;stroke:#CFEFFA;stroke-width:1.51;}
	.st213{opacity:0.6;fill:#E0EAED;stroke:#E0EAED;stroke-width:1.51;}
	.st214{opacity:0.6;fill:#D3E6ED;stroke:#D3E6ED;stroke-width:1.51;}
	.st215{opacity:0.6;fill:#C7E2EC;stroke:#C7E2EC;stroke-width:1.51;}
	.st216{opacity:0.6;fill:#DCEBED;stroke:#DCEBED;stroke-width:1.51;}
	.st217{opacity:0.6;fill:#C6E2E8;stroke:#C6E2E8;stroke-width:1.51;}
	.st218{opacity:0.6;fill:#D9E9EB;stroke:#D9E9EB;stroke-width:1.51;}
	.st219{opacity:0.6;fill:#DCECED;stroke:#DCECED;stroke-width:1.51;}
	.st220{opacity:0.6;fill:#DDF4F9;stroke:#DDF4F9;stroke-width:1.51;}
	.st221{opacity:0.6;fill:#DFEDEE;stroke:#DFEDEE;stroke-width:1.51;}
	.st222{opacity:0.6;fill:#DEEDEE;stroke:#DEEDEE;stroke-width:1.51;}
	.st223{opacity:0.6;fill:#DDEBED;stroke:#DDEBED;stroke-width:1.51;}
	.st224{opacity:0.6;fill:#D4EDF1;stroke:#D4EDF1;stroke-width:1.51;}
	.st225{opacity:0.6;fill:#DEECED;stroke:#DEECED;stroke-width:1.51;}
	.st226{opacity:0.6;fill:#E8F9FA;stroke:#E8F9FA;stroke-width:1.51;}
	.st227{opacity:0.6;fill:#E0EBED;stroke:#E0EBED;stroke-width:1.51;}
	.st228{opacity:0.6;fill:#C1E3EE;stroke:#C1E3EE;stroke-width:1.51;}
	.st229{opacity:0.6;fill:#D2E6EC;stroke:#D2E6EC;stroke-width:1.51;}
	.st230{opacity:0.6;fill:#D0EEF5;stroke:#D0EEF5;stroke-width:1.51;}
	.st231{opacity:0.6;fill:#E1EBED;stroke:#E1EBED;stroke-width:1.51;}
	.st232{opacity:0.6;fill:#D6E0E2;stroke:#D6E0E2;stroke-width:1.51;}
	.st233{opacity:0.6;fill:#DFF3F8;stroke:#DFF3F8;stroke-width:1.51;}
	.st234{opacity:0.6;fill:#D9ECED;stroke:#D9ECED;stroke-width:1.51;}
	.st235{opacity:0.6;fill:#DFECEE;stroke:#DFECEE;stroke-width:1.51;}
	.st236{opacity:0.6;fill:#DCEDEE;stroke:#DCEDEE;stroke-width:1.51;}
	.st237{opacity:0.6;fill:#C7E2E9;stroke:#C7E2E9;stroke-width:1.51;}
	.st238{opacity:0.6;fill:#DBF3F9;stroke:#DBF3F9;stroke-width:1.51;}
	.st239{opacity:0.6;fill:#E9FAFA;stroke:#E9FAFA;stroke-width:1.51;}
	.st240{opacity:0.6;fill:#E0EDEE;stroke:#E0EDEE;stroke-width:1.51;}
	.st241{opacity:0.6;fill:#DCE9EC;stroke:#DCE9EC;stroke-width:1.51;}
	.st242{opacity:0.6;fill:#E1ECEE;stroke:#E1ECEE;stroke-width:1.51;}
	.st243{opacity:0.6;fill:#D7EDEE;stroke:#D7EDEE;stroke-width:1.51;}
	.st244{opacity:0.6;fill:#DCE7EB;stroke:#DCE7EB;stroke-width:1.51;}
	.st245{opacity:0.6;fill:#CBE4ED;stroke:#CBE4ED;stroke-width:1.51;}
	.st246{opacity:0.6;fill:#D7E0E2;stroke:#D7E0E2;stroke-width:1.51;}
	.st247{opacity:0.6;fill:#D8E0E2;stroke:#D8E0E2;stroke-width:1.51;}
	.st248{opacity:0.6;fill:#D7DFE2;stroke:#D7DFE2;stroke-width:1.51;}
	.st249{opacity:0.6;fill:#C5E2EC;stroke:#C5E2EC;stroke-width:1.51;}
	.st250{opacity:0.6;fill:#D9DFE2;stroke:#D9DFE2;stroke-width:1.51;}
	.st251{opacity:0.6;fill:#CBE1E6;stroke:#CBE1E6;stroke-width:1.51;}
	.st252{opacity:0.6;fill:#E1EDEE;stroke:#E1EDEE;stroke-width:1.51;}
	.st253{opacity:0.6;fill:#E2EDEE;stroke:#E2EDEE;stroke-width:1.51;}
	.st254{opacity:0.6;fill:#E2ECEE;stroke:#E2ECEE;stroke-width:1.51;}
	.st255{opacity:0.6;fill:#E5F5F8;stroke:#E5F5F8;stroke-width:1.51;}
	.st256{opacity:0.6;fill:#DADFE2;stroke:#DADFE2;stroke-width:1.51;}
	.st257{opacity:0.6;fill:#CFEFF8;stroke:#CFEFF8;stroke-width:1.51;}
	.st258{opacity:0.6;fill:#CEF0F9;stroke:#CEF0F9;stroke-width:1.51;}
	.st259{opacity:0.6;fill:#EAFAFB;stroke:#EAFAFB;stroke-width:1.51;}
	.st260{opacity:0.6;fill:#EAFBFB;stroke:#EAFBFB;stroke-width:1.51;}
	.st261{opacity:0.6;fill:#DDEDEE;stroke:#DDEDEE;stroke-width:1.51;}
	.st262{opacity:0.6;fill:#DDE7EB;stroke:#DDE7EB;stroke-width:1.51;}
	.st263{opacity:0.6;fill:#CEE5ED;stroke:#CEE5ED;stroke-width:1.51;}
	.st264{opacity:0.6;fill:#D8F3FA;stroke:#D8F3FA;stroke-width:1.51;}
	.st265{opacity:0.6;fill:#CAE2E8;stroke:#CAE2E8;stroke-width:1.51;}
</style>
<path class="st0" d="M327,58l-13,18l24-11L327,58z"/>
<path class="st1" d="M314,76l49,31l-25-42L314,76z"/>
<path class="st2" d="M290,57l6,30l18-11L290,57z"/>
<path class="st3" d="M296,87l9,13l9-24L296,87z"/>
<path class="st4" d="M338,65l11-32l-22,25L338,65z"/>
<path class="st5" d="M372,101l-13-49l-21,13L372,101z"/>
<path class="st6" d="M327,58l-37-1l24,19L327,58z"/>
<path class="st7" d="M288,28l2,29l37,1L288,28z"/>
<path class="st8" d="M305,100l8,11l1-35L305,100z"/>
<path class="st9" d="M349,33l-17-4l-5,29L349,33z"/>
<path class="st4" d="M359,52l-10-19l-11,32L359,52z"/>
<path class="st10" d="M290,57l-12,12l18,18L290,57z"/>
<path class="st11" d="M271,135l38-5l-4-30L271,135z"/>
<path class="st12" d="M305,100l4,30l4-19L305,100z"/>
<path class="st13" d="M313,111l50-4l-49-31L313,111z"/>
<path class="st14" d="M363,107l9-6l-34-36L363,107z"/>
<path class="st15" d="M290,57l-29-2l17,14L290,57z"/>
<path class="st16" d="M332,29l-44-1l39,30L332,29z"/>
<path class="st17" d="M313,111l37,18l13-22L313,111z"/>
<path class="st18" d="M261,90l44,10l-9-13L261,90z"/>
<path class="st19" d="M372,101l16-20l-29-29L372,101z"/>
<path class="st20" d="M389,21L346,5l3,28L389,21z"/>
<path class="st21" d="M309,130l41-1l-37-18L309,130z"/>
<path class="st22" d="M363,107l20,30l-11-36L363,107z"/>
<path class="st23" d="M372,101l28-15l-12-5L372,101z"/>
<path class="st24" d="M278,69l-17,21l35-3L278,69z"/>
<path class="st25" d="M270,32l-9,23l29,2L270,32z"/>
<path class="st26" d="M261,55v35l17-21L261,55z"/>
<path class="st27" d="M288,28l-18,4l20,25L288,28z"/>
<path class="st21" d="M309,130l5,9l36-10L309,130z"/>
<path class="st11" d="M271,135l43,4l-5-9L271,135z"/>
<path class="st28" d="M332,29L294,8l-6,20L332,29z"/>
<path class="st29" d="M288,28L268,0l2,32L288,28z"/>
<path class="st30" d="M349,33l-3-28l-14,24L349,33z"/>
<path class="st31" d="M387,38l-38-5l10,19L387,38z"/>
<path class="st32" d="M388,81l-1-43l-28,14L388,81z"/>
<path class="st33" d="M332-2L294,8l38,21V-2z"/>
<path class="st34" d="M346,5l-14-7v31L346,5z"/>
<path class="st35" d="M388,81l21-37l-22-6L388,81z"/>
<path class="st36" d="M407,129l-7-43l-28,15L407,129z"/>
<path class="st37" d="M387,38l2-17l-40,12L387,38z"/>
<path class="st38" d="M349-28l-19,9l2,17L349-28z"/>
<path class="st39" d="M414,25l-25-4l-2,17L414,25z"/>
<path class="st40" d="M261,90l10,45l34-35L261,90z"/>
<path class="st41" d="M242,86l2,8l17-4L242,86z"/>
<path class="st42" d="M261,90l-15,30l25,15L261,90z"/>
<path class="st43" d="M270,32l-25,16l16,7L270,32z"/>
<path class="st44" d="M257,22l-12,26l25-16L257,22z"/>
<path class="st45" d="M268,0l-11,22l13,10L268,0z"/>
<path class="st46" d="M242,86l19,4V55L242,86z"/>
<path class="st47" d="M245,48l-3,38l19-31L245,48z"/>
<path class="st48" d="M350,129l33,8l-20-30L350,129z"/>
<path class="st49" d="M314,139l69-2l-33-8L314,139z"/>
<path class="st50" d="M400,86l9-42l-21,37L400,86z"/>
<path class="st51" d="M400,86l38-20l-29-22L400,86z"/>
<path class="st52" d="M407,129l7-38l-14-5L407,129z"/>
<path class="st53" d="M349-28L332-2l14,7L349-28z"/>
<path class="st54" d="M332-2l-2-17L294,8L332-2z"/>
<path class="st55" d="M294,8l-26-8l20,28L294,8z"/>
<path class="st56" d="M294-30L268,0l26,8V-30z"/>
<path class="st57" d="M215,90l31,30l-2-26L215,90z"/>
<path class="st58" d="M244,94l2,26l15-30L244,94z"/>
<path class="st59" d="M389,21l-2-26L346,5L389,21z"/>
<path class="st60" d="M414,10L387-5l2,26L414,10z"/>
<path class="st61" d="M409,44l5-19l-27,13L409,44z"/>
<path class="st62" d="M424,37l-10-12l-5,19L424,37z"/>
<path class="st63" d="M383,137l24-8l-35-28L383,137z"/>
<path class="st64" d="M387-5l-38-23l-3,33L387-5z"/>
<path class="st65" d="M330-19l-36-11V8L330-19z"/>
<path class="st66" d="M438,66l-38,20l14,5L438,66z"/>
<path class="st0" d="M438,66l-14-29l-15,7L438,66z"/>
<path class="st67" d="M407,129l20-33l-13-5L407,129z"/>
<path class="st61" d="M245,48l-22,5l19,33L245,48z"/>
<path class="st68" d="M242,86l-27,4l29,4L242,86z"/>
<path class="st69" d="M229,32l-6,21l22-5L229,32z"/>
<path class="st70" d="M229,32l16,16l12-26L229,32z"/>
<path class="st71" d="M238-4l-9,36l28-10L238-4z"/>
<path class="st72" d="M268,0l-30-4l19,26L268,0z"/>
<path class="st73" d="M349-28l-55-2l36,11L349-28z"/>
<path class="st74" d="M387-5l-6-25l-32,2L387-5z"/>
<path class="st75" d="M414,25V10l-25,11L414,25z"/>
<path class="st76" d="M439,25l-25-15v15H439z"/>
<path class="st77" d="M223,53l-7,15l26,18L223,53z"/>
<path class="st78" d="M190,67l26,1l-28-20L190,67z"/>
<path class="st79" d="M427,96l11-30l-24,25L427,96z"/>
<path class="st80" d="M439,25L422-1l-8,11L439,25z"/>
<path class="st81" d="M216,68l-1,22l27-4L216,68z"/>
<path class="st82" d="M398-30h-17l6,25L398-30z"/>
<path class="st65" d="M349-28l-79-12l24,10L349-28z"/>
<path class="st83" d="M188,48l28,20l7-15L188,48z"/>
<path class="st84" d="M255-30L238-4l30,4L255-30z"/>
<path class="st85" d="M414,10l8-11l-35-4L414,10z"/>
<path class="st86" d="M439,25h-25l10,12L439,25z"/>
<path class="st87" d="M462,40l-23-15l-15,12L462,40z"/>
<path class="st88" d="M270-40l-15,10l13,30L270-40z"/>
<path class="st85" d="M422-1l-24-29L387-5L422-1z"/>
<path class="st89" d="M462,40l-6-13l-17-2L462,40z"/>
<path class="st90" d="M427,96l23-14l-12-16L427,96z"/>
<path class="st91" d="M451,114l-1-32l-23,14L451,114z"/>
<path class="st56" d="M294-30l-24-10l-2,40L294-30z"/>
<path class="st92" d="M420-39l-150-1l79,12L420-39z"/>
<path class="st93" d="M420-39l-71,11l32-2L420-39z"/>
<path class="st94" d="M407,129l28,7l-8-40L407,129z"/>
<path class="st52" d="M383,137l52-1l-28-7L383,137z"/>
<path class="st95" d="M591,140l-156-4l-52,1L591,140z"/>
<path class="st96" d="M246,120l-35,6l60,9L246,120z"/>
<path class="st97" d="M215,90l-4,36l35-6L215,90z"/>
<path class="st98" d="M191,94l20,32l4-36L191,94z"/>
<path class="st99" d="M435,136l16-22l-24-18L435,136z"/>
<path class="st100" d="M216,68l-26-1l25,23L216,68z"/>
<path class="st101" d="M199,20l24,33l6-21L199,20z"/>
<path class="st102" d="M199,20l30,12l9-36L199,20z"/>
<path class="st103" d="M435,136l15-6l1-16L435,136z"/>
<path class="st104" d="M439,25l5-28l-22,2L439,25z"/>
<path class="st105" d="M422-1l-2-38l-22,9L422-1z"/>
<path class="st106" d="M462,40l-38-3l14,29L462,40z"/>
<path class="st50" d="M462,40l-24,26l12,16L462,40z"/>
<path class="st107" d="M190,67l1,27l24-4L190,67z"/>
<path class="st108" d="M213-12l-14,32l39-24L213-12z"/>
<path class="st109" d="M456,27L444-3l-5,28L456,27z"/>
<path class="st110" d="M491-11l-35-8L444-3L491-11z"/>
<path class="st111" d="M482,43l-20-3l-12,42L482,43z"/>
<path class="st112" d="M470,108l-20-26l1,32L470,108z"/>
<path class="st113" d="M190,67l-9,2l10,25L190,67z"/>
<path class="st114" d="M199,20l-11,28l35,5L199,20z"/>
<path class="st115" d="M209-39l4,27l42-18L209-39z"/>
<path class="st116" d="M255-30l-42,18l25,8L255-30z"/>
<path class="st85" d="M398-30l22-9l-39,9H398z"/>
<path class="st117" d="M444-3l-24-36l2,38L444-3z"/>
<path class="st118" d="M188,48l-7,21l9-2L188,48z"/>
<path class="st95" d="M476,132l-6-24l-19,6L476,132z"/>
<path class="st119" d="M211,126l-40,5l100,4L211,126z"/>
<path class="st120" d="M191,94l-4,29l24,3L191,94z"/>
<path class="st121" d="M171,131l16-8l-26-24L171,131z"/>
<path class="st122" d="M213-12l-22,9l8,23L213-12z"/>
<path class="st123" d="M166,34v23l22-9L166,34z"/>
<path class="st124" d="M188,48l-22,9l15,12L188,48z"/>
<path class="st125" d="M196-30l-5,27l22-9L196-30z"/>
<path class="st126" d="M482,43l-26-16l6,13L482,43z"/>
<path class="st127" d="M491-11l-47,8l12,30L491-11z"/>
<path class="st128" d="M444-3l12-16l-36-20L444-3z"/>
<path class="st129" d="M492,77l-10-34l-32,39L492,77z"/>
<path class="st130" d="M161,99l26,24l4-29L161,99z"/>
<path class="st131" d="M166,34l22,14l11-28L166,34z"/>
<path class="st132" d="M270-40l-61,1l46,9L270-40z"/>
<path class="st133" d="M470,108l22-31l-42,5L470,108z"/>
<path class="st134" d="M450,130l26,2l-25-18L450,130z"/>
<path class="st112" d="M435,136l41-4l-26-2L435,136z"/>
<path class="st135" d="M151,22l15,12l25-37L151,22z"/>
<path class="st136" d="M191-3l-25,37l33-14L191-3z"/>
<path class="st122" d="M209-39l-13,9l17,18L209-39z"/>
<path class="st137" d="M507,96l-15-19l-22,31L507,96z"/>
<path class="st138" d="M187,123l-16,8l40-5L187,123z"/>
<path class="st57" d="M271,135l-147-2l190,6L271,135z"/>
<path class="st139" d="M161,99l30-5l-10-25L161,99z"/>
<path class="st140" d="M153,94l8,5l-13-16L153,94z"/>
<path class="st141" d="M161,99l20-30l-33,14L161,99z"/>
<path class="st142" d="M492,77l5-20l-15-14L492,77z"/>
<path class="st143" d="M482,43l11-22l-37,6L482,43z"/>
<path class="st100" d="M499,33l-6-12l-11,22L499,33z"/>
<path class="st144" d="M161,99l-13,16l23,16L161,99z"/>
<path class="st145" d="M148,83l33-14l-15-12L148,83z"/>
<path class="st146" d="M497,57l2-24l-17,10L497,57z"/>
<path class="st147" d="M497,57l38,7l-36-31L497,57z"/>
<path class="st148" d="M492,77l12-6l-7-14L492,77z"/>
<path class="st149" d="M507,96l-3-25l-12,6L507,96z"/>
<path class="st150" d="M139,39l9,44l18-26L139,39z"/>
<path class="st151" d="M456-19l17-15l-53-5L456-19z"/>
<path class="st152" d="M491-11l-18-23l-17,15L491-11z"/>
<path class="st153" d="M491-11l-35,38l37-6L491-11z"/>
<path class="st101" d="M166,34l-27,5l27,18V34z"/>
<path class="st154" d="M156-11l-5,33l40-25L156-11z"/>
<path class="st155" d="M476,132l31-36l-37,12L476,132z"/>
<path class="st156" d="M126,108l22,7l5-21L126,108z"/>
<path class="st156" d="M153,94l-5,21l13-16L153,94z"/>
<path class="st157" d="M499-22l-8,11l26,20L499-22z"/>
<path class="st158" d="M196-30l-40,19l35,8L196-30z"/>
<path class="st159" d="M165-40l-9,29l40-19L165-40z"/>
<path class="st160" d="M151,22l-12,17l27-5L151,22z"/>
<path class="st161" d="M148,83l-22,25l27-14L148,83z"/>
<path class="st162" d="M115,20l24,19l12-17L115,20z"/>
<path class="st163" d="M156-11l-25,6l20,27L156-11z"/>
<path class="st164" d="M209-39l-44-1l31,10L209-39z"/>
<path class="st165" d="M270-40H165l44,1L270-40z"/>
<path class="st166" d="M517,9l-26-20l2,32L517,9z"/>
<path class="st167" d="M491-11l8-11l-26-12L491-11z"/>
<path class="st168" d="M517,9l-24,12l6,12L517,9z"/>
<path class="st168" d="M517,9l-18,24l39-12L517,9z"/>
<path class="st169" d="M476,132l42-17l-11-19L476,132z"/>
<path class="st170" d="M507,96l28-32l-31,7L507,96z"/>
<path class="st171" d="M535,64l-38-7l7,14L535,64z"/>
<path class="st172" d="M108,70l18,38l22-25L108,70z"/>
<path class="st156" d="M148,115l-24,18l47-2L148,115z"/>
<path class="st173" d="M518,115l11-13l-22-6L518,115z"/>
<path class="st137" d="M529,102l6-38l-28,32L529,102z"/>
<path class="st174" d="M146-40L131-5l25-6L146-40z"/>
<path class="st175" d="M139,39l-26,11l35,33L139,39z"/>
<path class="st176" d="M126,108l-2,25l24-18L126,108z"/>
<path class="st138" d="M171,131l-47,2l147,2L171,131z"/>
<path class="st177" d="M101,108l23,25l2-25H101z"/>
<path class="st163" d="M165-40h-19l10,29L165-40z"/>
<path class="st178" d="M115,20l-2,30l26-11L115,20z"/>
<path class="st163" d="M99,6l16,14l16-25L99,6z"/>
<path class="st179" d="M131-5l-16,25l36,2L131-5z"/>
<path class="st180" d="M517,9l20-16l-38-15L517,9z"/>
<path class="st181" d="M543,47l-5-26l-39,12L543,47z"/>
<path class="st5" d="M535,64l8-17l-44-14L535,64z"/>
<path class="st182" d="M562,57l-19-10l-8,17L562,57z"/>
<path class="st183" d="M93,86l15-16L86,56L93,86z"/>
<path class="st184" d="M113,50l-5,20l40,13L113,50z"/>
<path class="st185" d="M146-40l-26,25l11,10L146-40z"/>
<path class="st186" d="M518,115l25,12l-14-25L518,115z"/>
<path class="st137" d="M529,102l26-10l-20-28L529,102z"/>
<path class="st173" d="M476,132l67-5l-25-12L476,132z"/>
<path class="st186" d="M591,140l-48-13l-67,5L591,140z"/>
<path class="st187" d="M538,21l-1-28L517,9L538,21z"/>
<path class="st157" d="M499-22l35-13l-61,1L499-22z"/>
<path class="st187" d="M552,9L537-7l1,28L552,9z"/>
<path class="st188" d="M108,70l5-20l-27,6L108,70z"/>
<path class="st189" d="M93,86l33,22l-18-38L93,86z"/>
<path class="st190" d="M93,86l8,22h25L93,86z"/>
<path class="st191" d="M565,36L552,9l-14,12L565,36z"/>
<path class="st192" d="M554,118l1-26l-26,10L554,118z"/>
<path class="st186" d="M543,127l11-9l-25-16L543,127z"/>
<path class="st180" d="M537-7l-3-28l-35,13L537-7z"/>
<path class="st167" d="M473-34l93-7l-146,2L473-34z"/>
<path class="st193" d="M566-41l-32,6l3,28L566-41z"/>
<path class="st194" d="M86,56l27-6L84,21L86,56z"/>
<path class="st195" d="M565,36l-27-15l5,26L565,36z"/>
<path class="st196" d="M569,69l-7-12l-27,7L569,69z"/>
<path class="st197" d="M569,69l-34-5l20,28L569,69z"/>
<path class="st185" d="M120-15L99,6l32-11L120-15z"/>
<path class="st198" d="M120-15l-13-6L99,6L120-15z"/>
<path class="st185" d="M146-40l-39,19l13,6L146-40z"/>
<path class="st136" d="M84,21l29,29l2-30L84,21z"/>
<path class="st199" d="M562,57l3-21l-22,11L562,57z"/>
<path class="st193" d="M552,9l14-50L537-7L552,9z"/>
<path class="st200" d="M583,30l-18,6l22,2L583,30z"/>
<path class="st201" d="M573,75l-4-6l-14,23L573,75z"/>
<path class="st202" d="M587,38l-22-2l-3,21L587,38z"/>
<path class="st169" d="M583,94l-10-19l-18,17L583,94z"/>
<path class="st154" d="M99,6L84,21l31-1L99,6z"/>
<path class="st203" d="M57-12l27,33L99,6L57-12z"/>
<path class="st204" d="M61,106l26,29l14-27L61,106z"/>
<path class="st190" d="M101,108l-14,27l37-2L101,108z"/>
<path class="st121" d="M124,133l-37,2l227,4L124,133z"/>
<path class="st204" d="M61,106l40,2l-8-22L61,106z"/>
<path class="st205" d="M73,60l20,26l-7-30L73,60z"/>
<path class="st206" d="M107-21l-35-3L99,6L107-21z"/>
<path class="st185" d="M146-40H99l8,19L146-40z"/>
<path class="st33" d="M59,33l14,27l13-4L59,33z"/>
<path class="st207" d="M59,83l14-23L46,81L59,83z"/>
<path class="st208" d="M587,38l-25,19l7,12L587,38z"/>
<path class="st209" d="M554,118l29-24l-28-2L554,118z"/>
<path class="st210" d="M587,38l-18,31l4,6L587,38z"/>
<path class="st211" d="M565,36l18-6L552,9L565,36z"/>
<path class="st212" d="M613,50l-26-12l-14,37L613,50z"/>
<path class="st213" d="M588-27l-22-14L552,9L588-27z"/>
<path class="st180" d="M534-35l32-6l-93,7L534-35z"/>
<path class="st214" d="M420-39l146-2l-296,1L420-39z"/>
<path class="st38" d="M270-40l296-1l-401,1H270z"/>
<path class="st215" d="M165-40l401-1l-420,1H165z"/>
<path class="st88" d="M146-40l420-1L99-40H146z"/>
<path class="st216" d="M592-12L552,9l31,21L592-12z"/>
<path class="st217" d="M59,33l27,23l-2-35L59,33z"/>
<path class="st218" d="M73,60L59,83l34,3L73,60z"/>
<path class="st219" d="M59,83l2,23l32-20L59,83z"/>
<path class="st163" d="M57-12l2,45l25-12L57-12z"/>
<path class="st206" d="M99-40L72-24l35,3L99-40z"/>
<path class="st209" d="M554,118l37,22l-8-46L554,118z"/>
<path class="st169" d="M583,94h21l-31-19L583,94z"/>
<path class="st209" d="M543,127l48,13l-37-22L543,127z"/>
<path class="st169" d="M435,136l156,4l-115-8L435,136z"/>
<path class="st220" d="M314,139l277,1l-208-3L314,139z"/>
<path class="st221" d="M46,134l10-8l-25-25L46,134z"/>
<path class="st222" d="M61,106l-5,20l31,9L61,106z"/>
<path class="st223" d="M46,81l15,25l-2-23L46,81z"/>
<path class="st224" d="M604,29l-21,1l4,8L604,29z"/>
<path class="st225" d="M611,0l-19-12l-9,42L611,0z"/>
<path class="st226" d="M608,130l-4-36h-21L608,130z"/>
<path class="st227" d="M592-12l-4-15L552,9L592-12z"/>
<path class="st228" d="M29,58l44,2L59,33L29,58z"/>
<path class="st229" d="M29,58l17,23l27-21L29,58z"/>
<path class="st230" d="M613,50l-9-21l-17,9L613,50z"/>
<path class="st231" d="M592-12l24-12l-28-3L592-12z"/>
<path class="st232" d="M72-24L57-12L99,6L72-24z"/>
<path class="st221" d="M31,101l25,25l5-20L31,101z"/>
<path class="st222" d="M56,126l-10,8l41,1L56,126z"/>
<path class="st233" d="M617,81l-4-31l-40,25L617,81z"/>
<path class="st234" d="M604,29l7-29l-28,30L604,29z"/>
<path class="st226" d="M591,140l17-10l-25-36L591,140z"/>
<path class="st169" d="M604,94l13-13l-44-6L604,94z"/>
<path class="st192" d="M626,99l-9-18l-13,13L626,99z"/>
<path class="st163" d="M57-12L38,28l21,5L57-12z"/>
<path class="st235" d="M46,81l-15,20l30,5L46,81z"/>
<path class="st230" d="M624,39l-20-10l9,21L624,39z"/>
<path class="st236" d="M627,10L611,0l-7,29L627,10z"/>
<path class="st235" d="M24,100l7,1l15-20L24,100z"/>
<path class="st237" d="M38,28l-9,30l30-25L38,28z"/>
<path class="st13" d="M655,62l-31-23l-11,11L655,62z"/>
<path class="st238" d="M617,81l38-19l-42-12L617,81z"/>
<path class="st239" d="M625,120l1-21l-22-5L625,120z"/>
<path class="st239" d="M608,130l17-10l-21-26L608,130z"/>
<path class="st240" d="M31,101L9,130l37,4L31,101z"/>
<path class="st241" d="M29,58l-5,42l22-19L29,58z"/>
<path class="st231" d="M611,0l5-24l-24,12L611,0z"/>
<path class="st231" d="M588-27l28,3l-50-17L588-27z"/>
<path class="st242" d="M627,10l-11-34l-5,24L627,10z"/>
<path class="st144" d="M646,21l-19-11l-3,29L646,21z"/>
<path class="st243" d="M624,39l3-29l-23,19L624,39z"/>
<path class="st244" d="M29,58L6,63l18,37L29,58z"/>
<path class="st245" d="M5,51l1,12l23-5L5,51z"/>
<path class="st246" d="M57-12H26l12,40L57-12z"/>
<path class="st247" d="M27-16l-1,4h31L27-16z"/>
<path class="st246" d="M27-16l30,4l15-12L27-16z"/>
<path class="st247" d="M14-38l13,22l45-8L14-38z"/>
<path class="st248" d="M14-4l24,32L26-12L14-4z"/>
<path class="st249" d="M5,51l24,7l9-30L5,51z"/>
<path class="st250" d="M27-16L14-4l12-8L27-16z"/>
<path class="st251" d="M1,23l4,28l33-23L1,23z"/>
<path class="st252" d="M24,100L9,130l22-29L24,100z"/>
<path class="st253" d="M-23,114l32,16l15-30L-23,114z"/>
<path class="st253" d="M-1,138l10-8l-32-16L-1,138z"/>
<path class="st192" d="M626,99l23-20l-32,2L626,99z"/>
<path class="st239" d="M661,107l-12-28l-23,20L661,107z"/>
<path class="st254" d="M627,10l17-39l-28,5L627,10z"/>
<path class="st120" d="M658,32l-12-11l-22,18L658,32z"/>
<path class="st255" d="M649,79l6-17l-38,19L649,79z"/>
<path class="st180" d="M-16,79l40,21L6,63L-16,79z"/>
<path class="st185" d="M14-4L1,23l37,5L14-4z"/>
<path class="st256" d="M14-4L-5-15l6,38L14-4z"/>
<path class="st256" d="M27-16l-32,1L14-4L27-16z"/>
<path class="st246" d="M99-40l-85,2l58,14L99-40z"/>
<path class="st253" d="M659-25l-15-4l-17,39L659-25z"/>
<path class="st231" d="M616-24l28-5l-78-12L616-24z"/>
<path class="st253" d="M659-25l-32,35l43-5L659-25z"/>
<path class="st257" d="M655,62l3-30l-34,7L655,62z"/>
<path class="st252" d="M9,130l-10,8l47-4L9,130z"/>
<path class="st221" d="M46,134l-47,4l88-3L46,134z"/>
<path class="st176" d="M87,135l-88,3l315,1L87,135z"/>
<path class="st258" d="M314,139l-315-1l592,2L314,139z"/>
<path class="st53" d="M-13,43L6,63L5,51L-13,43z"/>
<path class="st12" d="M655,62l30-12l-27-18L655,62z"/>
<path class="st134" d="M649,79l15-6l-9-11L649,79z"/>
<path class="st259" d="M625,120l36-13l-35-8L625,120z"/>
<path class="st260" d="M675,130l-14-23l-36,13L675,130z"/>
<path class="st239" d="M675,130l-50-10l-17,10H675z"/>
<path class="st209" d="M661,107l3-34l-15,6L661,107z"/>
<path class="st84" d="M1,23l-14,20l18,8L1,23z"/>
<path class="st159" d="M-25,15l12,28L1,23L-25,15z"/>
<path class="st256" d="M14-38L-5-15l32-1L14-38z"/>
<path class="st85" d="M-13,43l-3,36L6,63L-13,43z"/>
<path class="st176" d="M670,5l-24,16l12,11L670,5z"/>
<path class="st261" d="M670,5l-43,5l19,11L670,5z"/>
<path class="st190" d="M696,11l-26-6l-12,27L696,11z"/>
<path class="st254" d="M-16,79l-7,35l47-14L-16,79z"/>
<path class="st231" d="M-27,84l4,30l7-35L-27,84z"/>
<path class="st262" d="M-27,84l11-5l-15-22L-27,84z"/>
<path class="st263" d="M-31,57l15,22l3-36L-31,57z"/>
<path class="st260" d="M683,136l-8-6h-67L683,136z"/>
<path class="st209" d="M661,107l26-28l-23-6L661,107z"/>
<path class="st264" d="M664,73l21-23l-30,12L664,73z"/>
<path class="st246" d="M-5-15l-20,30l26,8L-5-15z"/>
<path class="st256" d="M14-38l-28,7l9,16L14-38z"/>
<path class="st256" d="M-31,1l6,14l20-30L-31,1z"/>
<path class="st265" d="M-25,15l-6,42l18-14L-25,15z"/>
<path class="st253" d="M-52,111l16,20l13-17L-52,111z"/>
<path class="st99" d="M687,79l-2-29l-21,23L687,79z"/>
<path class="st253" d="M670,5l11-30h-22L670,5z"/>
<path class="st240" d="M696,11l-16-9l-10,3L696,11z"/>
<path class="st239" d="M695,103l-8-24l-26,28L695,103z"/>
<path class="st260" d="M675,130l20-27l-34,4L675,130z"/>
<path class="st239" d="M591,140l92-4l-75-6L591,140z"/>
<path class="st158" d="M-25,15l-26-2l20,44L-25,15z"/>
<path class="st256" d="M-27-23l-4,24l26-16L-27-23z"/>
<path class="st256" d="M-14-31l-13,8l22,8L-14-31z"/>
<path class="st193" d="M-52,111l25-27l-4-27L-52,111z"/>
<path class="st253" d="M-52,111l29,3l-4-30L-52,111z"/>
<path class="st253" d="M-23,114l-13,17l35,7L-23,114z"/>
<path class="st253" d="M680,2l1-27L670,5L680,2z"/>
<path class="st253" d="M659-25h22l-37-4L659-25z"/>
<path class="st254" d="M644-29l37,4L566-41L644-29z"/>
<path class="st253" d="M696,11l-15-36l-1,27L696,11z"/>
<path class="st120" d="M696,11l-38,21l27,18L696,11z"/>
<path class="st12" d="M687,79l9-68l-11,39L687,79z"/>
<path class="st260" d="M683,136l12-33l-20,27L683,136z"/>
<path class="st67" d="M695,103l1-92l-9,68L695,103z"/>
<path class="st246" d="M-51,13l26,2l-6-14L-51,13z"/>
<path class="st82" d="M-51,13l-1,98l21-54L-51,13z"/>
<path class="st256" d="M-27-23l-24,36l20-12L-27-23z"/>
</svg>
